<svg width="119" height="89" viewBox="0 0 119 89" fill="none" xmlns="http://www.w3.org/2000/svg">
<g clip-path="url(#clip0_1056_5069)">
<path d="M101.181 20.3087H84.7168C84.6187 16.4654 82.9937 12.8117 80.1881 10.1263C77.3825 7.44095 73.6182 5.93634 69.6976 5.93317C65.8262 5.92342 62.1012 7.38335 59.3031 10.007C56.509 7.38237 52.7862 5.9221 48.917 5.93317C44.9956 5.93628 41.2304 7.44066 38.4234 10.1258C35.6165 12.8109 33.9896 16.4647 33.8893 20.3087H17.4512C16.5177 20.3065 15.593 20.4851 14.7301 20.8344C13.8673 21.1837 13.0833 21.6966 12.4232 22.3439C11.7631 22.9912 11.24 23.7599 10.8838 24.606C10.5276 25.4521 10.3454 26.3589 10.3477 27.2743V40.4595C10.3492 41.8712 10.7882 43.2492 11.6064 44.4109C12.4247 45.5725 13.5835 46.4629 14.9295 46.9641V77.6848C14.9317 79.4271 15.6385 81.0973 16.8949 82.3292C18.1512 83.5612 19.8545 84.2542 21.6313 84.2565H96.3337C98.1119 84.2565 99.8174 83.5644 101.076 82.3322C102.334 81.1 103.042 79.4285 103.044 77.6848V47.1401C104.537 46.7317 105.853 45.8549 106.79 44.644C107.727 43.433 108.234 41.9544 108.233 40.4343V27.2743C108.235 25.4349 107.494 23.6694 106.173 22.3641C104.851 21.0588 103.056 20.3197 101.181 20.3087ZM104.848 40.4259C104.845 41.379 104.458 42.2923 103.771 42.9662C103.084 43.6401 102.152 44.0197 101.181 44.0219H99.6589V77.6513C99.6544 78.505 99.306 79.3225 98.6895 79.9254C98.0731 80.5283 97.2386 80.8679 96.3679 80.8701H21.6654C20.7956 80.8679 19.962 80.528 19.3469 79.9249C18.7318 79.3217 18.3852 78.5043 18.383 77.6513V44.0387H17.4683C16.4964 44.0365 15.565 43.6569 14.8777 42.983C14.1905 42.3091 13.8034 41.3958 13.8011 40.4427V27.2743C13.8034 26.3212 14.1905 25.4079 14.8777 24.734C15.565 24.0601 16.4964 23.6805 17.4683 23.6783H37.7018C37.4298 22.7032 37.2919 21.6968 37.2915 20.6859C37.2915 17.6669 38.5145 14.7716 40.6915 12.6368C42.8685 10.5021 45.8212 9.30283 48.8999 9.30283C51.0567 9.30154 53.1712 9.88993 55.0059 11.0019C56.8406 12.1139 58.3228 13.7055 59.2859 15.5979C60.2521 13.7061 61.7362 12.1152 63.572 11.0035C65.4078 9.8917 67.5228 9.30287 69.6805 9.30283C72.7578 9.3006 75.71 10.4966 77.8884 12.6279C80.0667 14.7593 81.293 17.6516 81.2975 20.6691C81.2971 21.68 81.1592 22.6864 80.8872 23.6615H101.155C102.127 23.6638 103.058 24.0433 103.745 24.7172C104.433 25.3911 104.82 26.3045 104.822 27.2575L104.848 40.4259Z" fill="white"/>
<path d="M24.9922 59.7299V47.6344L27.8558 44.8264H35.6517L38.5154 47.6344V59.7299L35.6517 62.538H27.8558L24.9922 59.7299ZM34.2584 60.0066L35.515 58.7911V48.5732L34.284 47.3914H29.2748L28.0097 48.6068V58.7911L29.2748 60.0066H34.2584Z" fill="white"/>
<path d="M41.6094 59.7299V47.6344L44.473 44.8264H52.2347L55.0984 47.6344V59.7299L52.2347 62.538H44.4388L41.6094 59.7299ZM50.8756 60.0066L52.1407 58.7911V48.5732L50.8756 47.3579H45.8663L44.6012 48.5732V58.7911L45.8663 60.0066H50.8756Z" fill="white"/>
<path d="M57.8164 53.259V51.8424L58.7652 50.9036H60.3723L61.2955 51.8424V53.259L60.3723 54.2229H58.7652L57.8164 53.259ZM57.8164 61.5825V60.1659L58.7652 59.2271H60.3723L61.2955 60.1911V61.5574L60.3723 62.5213H58.7652L57.8164 61.5825Z" fill="white"/>
<path d="M63.9805 59.7299V47.6344L66.8441 44.8264H74.6401L77.5037 47.6344V59.7299L74.6401 62.538H66.8441L63.9805 59.7299ZM73.2467 60.0066L74.5118 58.7911V48.5732L73.2467 47.3579H68.2374L66.9723 48.5732V58.7911L68.2374 60.0066H73.2467Z" fill="white"/>
<path d="M80.5977 59.7299V47.6344L83.4613 44.8264H91.2573L94.1209 47.6344V59.7299L91.2573 62.538H83.4613L80.5977 59.7299ZM89.8639 60.0066L91.129 58.7911V48.5732L89.8468 47.3914H84.8376L83.5724 48.6068V58.7911L84.8376 60.0066H89.8639Z" fill="white"/>
</g>
<defs>
<clipPath id="clip0_1056_5069">
<rect width="97.8936" height="78.3149" fill="white" transform="translate(10.3828 5.93311)"/>
</clipPath>
</defs>
</svg>
