<svg width="119" height="89" viewBox="0 0 119 89" fill="none" xmlns="http://www.w3.org/2000/svg">
<path d="M58.4467 54.3157C57.7691 54.3162 57.1185 54.5808 56.6329 55.0533C56.3683 55.2921 56.1556 55.5826 56.0078 55.907C55.86 56.2313 55.7804 56.5825 55.7739 56.9389C55.7674 57.2952 55.834 57.6491 55.9699 57.9786C56.1057 58.3082 56.3078 58.6062 56.5635 58.8545C56.7628 59.0254 56.9186 59.2412 57.0182 59.4841C57.1178 59.727 57.1582 59.9901 57.1362 60.2518C57.1362 60.4427 57.1362 60.6423 57.1362 60.8332V61.6316C57.1292 61.8114 57.1587 61.9909 57.2227 62.1591C57.2867 62.3273 57.384 62.4808 57.5088 62.6105C57.6336 62.7401 57.7834 62.8433 57.949 62.9137C58.1146 62.9841 58.2928 63.0203 58.4727 63.0202C58.6519 63.0215 58.8295 62.9864 58.9947 62.9168C59.1599 62.8473 59.3091 62.7448 59.4334 62.6157C59.5576 62.4866 59.6543 62.3335 59.7174 62.1658C59.7805 61.9981 59.8088 61.8193 59.8006 61.6403C59.8006 61.1196 59.8006 60.6076 59.8006 60.0869C59.7949 59.8714 59.8362 59.6574 59.9217 59.4595C60.0071 59.2617 60.1345 59.0849 60.2952 58.9413C60.5523 58.7038 60.7601 58.4178 60.9067 58.0999C61.0533 57.7821 61.1358 57.4384 61.1495 57.0887C61.1632 56.7389 61.1078 56.3898 60.9866 56.0614C60.8653 55.733 60.6805 55.4318 60.4428 55.1748C60.1855 54.904 59.876 54.6882 59.5329 54.5405C59.1898 54.3928 58.8202 54.3163 58.4467 54.3157Z" fill="white"/>
<path d="M101.118 19.3333H84.4029C84.3033 15.3542 82.6535 11.5714 79.8051 8.79111C76.9568 6.01084 73.1352 4.45305 69.1549 4.44977C65.2245 4.43968 61.4426 5.9512 58.6019 8.66753C55.7653 5.95019 51.9857 4.43831 48.0575 4.44977C44.0764 4.45299 40.2538 6.01054 37.4041 8.79058C34.5543 11.5706 32.9027 15.3535 32.8009 19.3333H16.1122C15.1645 19.331 14.2257 19.516 13.3497 19.8776C12.4737 20.2392 11.6778 20.7703 11.0076 21.4405C10.3375 22.1106 9.80634 22.9066 9.44472 23.7826C9.08311 24.6586 8.89812 25.5974 8.90041 26.5451V40.1963C8.90195 41.658 9.34763 43.0847 10.1783 44.2873C11.0091 45.49 12.1856 46.4119 13.552 46.9308V78.7373C13.5543 80.5411 14.2719 82.2703 15.5474 83.5458C16.8229 84.8213 18.5521 85.5388 20.3559 85.5411H96.1968C98.0021 85.5411 99.7336 84.8246 101.011 83.5489C102.288 82.2731 103.007 80.5426 103.009 78.7373V47.113C104.525 46.6902 105.861 45.7824 106.812 44.5287C107.764 43.2749 108.278 41.7441 108.277 40.1703V26.5451C108.28 24.6407 107.528 22.8129 106.186 21.4614C104.844 20.1099 103.022 19.3448 101.118 19.3333ZM104.841 40.1616C104.838 41.1483 104.445 42.0939 103.748 42.7917C103.05 43.4894 102.104 43.8823 101.118 43.8846H99.5728V78.7025C99.5682 79.5865 99.2144 80.4328 98.5886 81.057C97.9627 81.6812 97.1155 82.0328 96.2316 82.0351H20.3907C19.5075 82.0328 18.6612 81.6809 18.0367 81.0565C17.4122 80.432 17.0605 79.5857 17.0582 78.7025V43.902H16.1295C15.1428 43.8997 14.1972 43.5067 13.4995 42.809C12.8018 42.1113 12.4088 41.1657 12.4065 40.179V26.5451C12.4088 25.5584 12.8018 24.6127 13.4995 23.915C14.1972 23.2173 15.1428 22.8244 16.1295 22.8221H36.6714C36.3953 21.8125 36.2552 20.7705 36.2549 19.7239C36.2549 16.5982 37.4965 13.6005 39.7067 11.3904C41.9168 9.18018 44.9145 7.93852 48.0402 7.93852C50.2299 7.93719 52.3766 8.54638 54.2392 9.69768C56.1019 10.849 57.6066 12.4968 58.5845 14.456C59.5654 12.4974 61.072 10.8503 62.9358 9.69927C64.7995 8.54821 66.9469 7.93856 69.1375 7.93852C72.2617 7.93622 75.2589 9.17446 77.4705 11.3811C79.682 13.5878 80.9269 16.5823 80.9315 19.7065C80.9311 20.7532 80.791 21.7951 80.5149 22.8047H101.091C102.078 22.807 103.024 23.1999 103.722 23.8977C104.419 24.5954 104.812 25.541 104.815 26.5277L104.841 40.1616Z" fill="white"/>
<path d="M68.0595 48.849V47.8336C68.0595 47.0439 68.0595 46.2715 68.0595 45.4904V45.3515C68.0697 44.7331 68.0291 44.1148 67.938 43.503C67.5886 41.2418 66.4387 39.1814 64.6977 37.6969C62.9567 36.2123 60.7404 35.4024 58.4524 35.4147C58.1573 35.4147 57.8623 35.4147 57.5846 35.4147C55.2774 35.6385 53.1288 36.6882 51.5341 38.3705C49.9395 40.0529 49.0062 42.2546 48.9061 44.5705C48.9061 45.5164 48.9061 46.4537 48.9061 47.3562V48.5018C48.9061 48.5973 48.9061 48.7101 48.9061 48.8142C48.1359 48.8996 47.4279 49.2779 46.9288 49.8708C46.4296 50.4636 46.1775 51.2257 46.2245 51.9992C46.2245 54.0821 46.2245 56.1649 46.2245 58.2477C46.1608 59.5644 46.2276 60.8842 46.4241 62.1877C46.8607 64.187 47.9509 65.9838 49.5225 67.2945C51.094 68.6052 53.0574 69.355 55.1025 69.4255C55.9704 69.4255 56.8382 69.4255 57.7061 69.4255H60.4398C61.1785 69.4358 61.9171 69.4068 62.6527 69.3387C64.8795 69.0999 66.9403 68.0494 68.4418 66.3878C69.9433 64.7263 70.7803 62.57 70.7931 60.3305C70.7931 57.8832 70.7931 55.4417 70.7931 53.0059C70.818 52.4091 70.7948 51.8112 70.7237 51.2181C70.591 50.5904 70.2608 50.0217 69.7813 49.5953C69.3019 49.169 68.6984 48.9074 68.0595 48.849ZM52.7594 48.7882V48.0852C52.7594 47.5819 52.7594 47.0872 52.7594 46.5839V45.9764C52.7281 45.2336 52.7688 44.4896 52.8809 43.7547C53.1632 42.5735 53.8077 41.5102 54.7242 40.7134C55.6408 39.9167 56.7835 39.4265 57.9924 39.3114C58.1456 39.3025 58.2992 39.3025 58.4524 39.3114C59.5527 39.3204 60.6275 39.6438 61.55 40.2435C62.4726 40.8432 63.2045 41.6941 63.6595 42.6959C63.9933 43.4315 64.1622 44.2313 64.1542 45.0391V48.8229L52.7594 48.7882ZM67.2437 53.0753C67.2437 55.5053 67.2437 57.9439 67.2437 60.3739C67.2274 61.755 66.7082 63.0827 65.7832 64.1084C64.8582 65.134 63.5909 65.7872 62.2188 65.9455C61.6287 66.0062 60.9779 66.0149 60.3617 66.0149H57.628C56.7602 66.0149 55.9617 66.0149 55.1286 66.0149C53.8778 65.9531 52.6815 65.4836 51.7225 64.6782C50.7635 63.8727 50.0944 62.7756 49.8174 61.5542C49.7012 60.7614 49.6605 59.9594 49.6959 59.1589C49.6959 58.8639 49.6959 58.5688 49.6959 58.2911C49.6959 56.7724 49.6959 55.2537 49.6959 53.7436V52.2769H67.2437V53.0927V53.0753Z" fill="white"/>
</svg>
