<svg width="119" height="89" viewBox="0 0 119 89" fill="none" xmlns="http://www.w3.org/2000/svg">
<path d="M94.5732 31.511L97.1243 36.6639L102.816 37.4922L98.6948 41.4982L99.6674 47.1688L94.5732 44.4928L89.4789 47.1688L90.4515 41.4982L86.3379 37.4922L92.03 36.6639L94.5732 31.511Z" fill="white"/>
<path d="M110.979 35.6919L113.499 38.4396L117.19 37.9219L115.356 41.1634L116.99 44.5084L113.339 43.7677L110.653 46.3561L110.23 42.6527L106.938 40.9085L110.334 39.3634L110.979 35.6919Z" fill="white"/>
<path d="M104.138 18.7673L105.453 21.4274L108.395 21.8495L106.266 23.9282L106.769 26.8511L104.138 25.4653L101.507 26.8511L102.009 23.9282L99.8887 21.8495L102.822 21.4274L104.138 18.7673Z" fill="white"/>
<path d="M88.8262 18.5528L84.8401 8.99561C84.1682 7.37705 82.8806 6.09122 81.2601 5.42068C79.6396 4.75014 77.819 4.74977 76.1982 5.41966L62.0316 11.2893C60.5467 7.94935 57.8142 5.32126 54.4169 3.96578C51.0196 2.61029 47.2266 2.63474 43.8471 4.03388C40.5122 5.40677 37.8383 8.01523 36.3851 11.3132C33.0202 10.0071 29.2793 10.0556 25.9495 11.4486C22.573 12.8523 19.8786 15.5175 18.4401 18.8765C17.0016 22.2356 16.9329 26.023 18.2484 29.4319L4.08176 35.3017C3.27982 35.6332 2.55109 36.1193 1.93719 36.7322C1.32329 37.3451 0.836199 38.0727 0.50381 38.8737C0.171421 39.6746 0.000277239 40.5331 3.36439e-07 41.4001C-0.000276566 42.2672 0.170375 43.1258 0.502253 43.9269L4.48835 53.4841L5.28557 55.4831L5.40518 55.7778C6.04348 57.3078 7.26239 58.523 8.79531 59.1573C10.3282 59.7917 12.0502 59.7936 13.5846 59.1626L86.7694 28.8426C89.9583 27.5205 91.0664 24.0242 89.743 20.8783L88.8262 18.5528ZM86.7136 21.7385C87.0364 22.5292 87.0518 23.4119 86.7568 24.2134C86.4619 25.015 85.8778 25.6775 85.1192 26.071L12.4924 56.1521C11.6776 56.4171 10.793 56.367 10.0135 56.0115C9.23403 55.6561 8.61653 55.0213 8.28313 54.2327L7.48591 52.2337L3.49981 42.6765C3.15578 41.8387 3.15707 40.8989 3.50351 40.062C3.84994 39.2252 4.5134 38.559 5.34932 38.2086L22.8085 30.977C22.2187 30.2167 21.7333 29.381 21.3654 28.4922C20.2667 25.8422 20.2658 22.8648 21.363 20.2142C22.4602 17.5636 24.5658 15.4564 27.2171 14.3556C29.0766 13.5856 31.114 13.3484 33.1009 13.6706C35.0878 13.9927 36.9455 14.8615 38.4659 16.1794C38.6061 14.1735 39.3033 12.2464 40.4792 10.6144C41.655 8.98248 43.2631 7.71033 45.1226 6.94081C47.7763 5.84362 50.7574 5.84388 53.4108 6.94154C56.0643 8.0392 58.1729 10.1445 59.2733 12.7946C59.6389 13.6821 59.8855 14.614 60.0068 15.5661L77.4738 8.33456C78.3114 7.99118 79.2509 7.99276 80.0873 8.33894C80.9237 8.68511 81.5892 9.34776 81.9383 10.1823L86.7136 21.7385Z" fill="white"/>
<path d="M95.2288 55.1885V79.1769C95.2246 79.9881 94.8996 80.7648 94.3247 81.3376C93.7498 81.9105 92.9715 82.2331 92.1595 82.2352H22.4904C21.6791 82.2331 20.9017 81.9102 20.328 81.3371C19.7544 80.764 19.4312 79.9874 19.4291 79.1769V55.1885H16.2402V79.1769C16.2423 80.8323 16.9015 82.4192 18.0732 83.5897C19.2449 84.7602 20.8334 85.4188 22.4904 85.4209H92.1595C93.8179 85.4209 95.4084 84.7633 96.5819 83.5925C97.7553 82.4218 98.4155 80.8336 98.4176 79.1769V55.1885H95.2288Z" fill="white"/>
<path d="M37.5254 57.761H40.0367L46.4623 67.5252V57.761H49.1568V72.1604H46.6456L40.22 62.4042V72.1604H37.5254V57.761Z" fill="white"/>
<path d="M55.0625 57.761H65.2749V60.1503H57.8607V64.1324H64.2864V66.5217H57.8607V72.2002H55.0625V57.761Z" fill="white"/>
<path d="M73.3909 60.1259H69.0859V57.7366H80.4942V60.1259H76.1892V72.1599H73.3909V60.1259Z" fill="white"/>
</svg>
