<svg
  xmlns="http://www.w3.org/2000/svg"
  fill="none"
  viewBox="0 0 82 82"
>
  <path
    fill="#fff"
    d="M24.3808 42.104a24.851 24.851 0 0 1 7.4816 3.2151c4.8001 3.1459 7.2349 7.3865 7.2349 12.6526h2.2641c0-6.0086-2.8775-11.0545-8.3227-14.5778a25.02 25.02 0 0 0-2.1945-1.2584h31.501v-2.2588h-31.501a24.9936 24.9936 0 0 0 2.1945-1.2583c5.4452-3.5297 8.3227-8.5693 8.3227-14.5779h-2.2641c0 5.2599-2.4348 9.5194-7.2349 12.6464a24.814 24.814 0 0 1-7.4816 3.2213v2.1958ZM6.0222 19.5546l.6703-.9061 3.6934 1.8246-2.593-3.3157.4996-.6795 3.9464 1.4911-2.8649-2.9571.6704-.9123 3.9336 4.3539-.6324.8431-3.9463-1.4597 2.5676 3.3283-.6324.8431-5.3123-2.4537ZM11.7895 12.3569l3.0736-2.8376.6324.6921-2.2514 2.07.9929 1.0633 2.068-1.8875.6324.6795-2.068 1.8875 1.0055 1.0821 2.2451-2.0699.6324.6858-3.0735 2.8376-3.8894-4.2029ZM16.7279 8.0913l.936-.6291 2.6878 3.9764 2.4095-1.617.5249.7864-3.3392 2.2336-3.219-4.7503ZM23.7864 9.2426 22.1485 5.757l.4616-1.2583 2.5677-1.1955 1.2648.4405.3731.799-1.0182.472-.2023-.4216-.5123-.1825-1.5052.692-.2023.56 1.2648 2.7118.5629.2013 1.4988-.6984.1898-.5096-.2024-.4215 1.0245-.4782.3731.7927-.4553 1.2584-2.5676 1.1954-1.2776-.4718ZM29.4398 6.7572l-1.0055-3.7184.6704-1.1577 2.8838-.7676 1.1636.6607 1.0056 3.7184-.6767 1.1577-2.8775.7675-1.1637-.6606Zm3.2191-.8745.2972-.5097-.7842-2.8941-.5123-.2957-1.7265.4656-.3036.5095.7842 2.8942.5186.2958 1.7266-.4656ZM35.5293.3964l1.0372-.0755 1.9858 3.5674L40.0195.0755 41.0567 0l.4111 5.7192-1.0815.0755-.2529-3.4793L38.995 5.09l-.6957.0503-1.5115-2.586.253 3.4794-1.0878.0818-.4237-5.7192ZM43.7508.132l4.1613.4657-.1075.9374-3.042-.346-.1644 1.4408 2.808.3146-.1076.9185-2.8016-.3146-.1708 1.466 3.0483.346-.1075.9312-4.1677-.4656.6515-5.694ZM54.5038 3.322l-1.619-.6291.3289-.8809 4.3005 1.5918-.3289.8809-1.6253-.6292-1.6759 4.486-1.0562-.39 1.6759-4.4295ZM56.9186 8.4181l1.8973-3.3408 1.2649-.3461 2.5865 1.4722.3605 1.2584-1.8972 3.3409-1.2649.3524-2.5866-1.4723-.3605-1.2647Zm2.9028 1.6422.5756-.1573 1.4988-2.5985-.1581-.5725-1.5558-.8872-.5755.1573-1.4925 2.5985.1581.5726 1.5494.8871ZM68.3788 10.3562l2.6246 2.611v1.3905l-2.6752 2.6677h-1.4039l-2.6246-2.6111 4.0791-4.0581Zm-1.1699 5.5996h.5755l2.1312-2.114v-.5977l-1.4356-1.422-2.7257 2.7055 1.4546 1.4282ZM73.2222 15.5784l.6831.8871-4.5788 3.4794-.683-.8872 4.5787-3.4793ZM71.1803 20.8194l3.3581-1.919 1.2965.3524 1.4356 2.5167-.3415 1.2583-.7652.4341-.5629-.969.4111-.2328.1391-.5284-.8474-1.4723-.5755-.1573-2.612 1.4975-.1581.5725.8602 1.4849.5502.151.7778-.4468-.6324-1.0696.8285-.4781 1.1637 2.0196-1.9606 1.1199-1.2648-.3523-1.4293-2.4727.3289-1.3086ZM78.6554 24.689l.43 1.0381-5.3249 2.1895-.4301-1.0381 5.325-2.1895ZM80.4322 29.6088l.2719.9815-5.0024 3.5422-.3036-1.0947 1.1067-.7865-.5312-1.9567-1.3597-.1195-.2973-1.0948 6.1156.5285Zm-3.0989 2.1643 1.8972-1.3149-2.3083-.1447.4111 1.4596ZM76.7078 34.9694l.8158-.0818.1139 1.0948-.4807.0503-.2403.302.1708 1.6925.3098.2517.9487-.0944.2466-.302-.2277-2.1707.7906-.9752 1.5178-.1573.9739.7928.2719 2.5922-.7968.9752-.8222.0881-.1138-1.1011.487-.0503.2466-.2957-.1707-1.6233-.2972-.2454-.8475.0881-.2403.2957.2276 2.1707-.7968.9815-1.6127.1635-.9929-.8115-.2719-2.6552.7905-.9752ZM82.0005 41.242v1.12l-5.7614-.1259v-1.1199l5.7614.1258ZM81.6211 46.4391l-.1518 1.0067-6.0143 1.2583.1707-1.1262 1.3281-.2768.3036-2.0008-1.189-.6292.1708-1.1262 5.3819 2.8942Zm-3.7187.7362 2.2831-.4342-2.0554-1.0571-.2277 1.4913ZM75.0625 63.9052l-.7083.8808-3.6112-1.9819 2.4602 3.4227-.5313.6292-3.8767-1.6485 2.732 3.0704-.7083.8871-3.7945-4.4105.6324-.8179 3.8831 1.6233-2.4285-3.429.6324-.8179 5.3187 2.5922ZM69.0107 70.8574l-3.1621 2.7055-.6324-.7173 2.3336-1.9756-.9486-1.1073-2.1439 1.8246-.6324-.7047 2.1502-1.8183-.9613-1.1262-2.3336 1.9819-.6324-.7173 3.1621-2.7054 3.8008 4.3601ZM63.9126 74.9029l-.9613.5914-2.5297-4.077-2.4664 1.51-.4933-.799 3.4214-2.1014 3.0293 4.876ZM56.9118 73.4684l1.4925 3.5485-.5123 1.2583-2.6119 1.0885-1.2205-.4908-.3415-.8116 1.0371-.4341.1834.4341.5123.2014 1.5241-.6292.2277-.5474-1.1637-2.7621-.5565-.2265-1.5241.6292-.2087.5034.1834.4278-1.0435.4341-.3415-.8053.5059-1.2143 2.6119-1.0885 1.2459.4845ZM51.1384 75.7334l.8538 3.7751-.721 1.1325-2.9092.6292-1.1383-.711-.8538-3.775.721-1.1326L50 75.0225l1.1384.7109Zm-3.2507.7362-.3225.4971.6641 2.9256.5059.3146 1.7392-.3902.3225-.4969-.6324-2.9257-.506-.3146-1.7708.3901ZM44.7832 81.8426h-1.0435l-1.8277-3.6492-1.619 3.775-1.0435.0315-.1708-5.7318h1.0878l.1012 3.4919 1.2648-2.7243h.6957l1.404 2.6425-.1012-3.4856h1.0878l.1644 5.65ZM36.5233 81.7419l-4.136-.6292.1454-.9311 3.023.4719.2277-1.4346-2.789-.4341.1391-.9123 2.789.4342.2277-1.4598-3.023-.4655.1455-.9312 4.136.6292-.8854 5.6625ZM25.962 78.1306l1.5937.6669-.3668.8683-4.2246-1.768.3605-.8682 1.6.6668 1.8657-4.4042 1.0371.4279-1.8656 4.4105ZM23.7285 72.9338l-2.0617 3.2592-1.3091.2894-2.5297-1.573-.3036-1.3024 2.0617-3.2591 1.3091-.2957 2.5297 1.5793.3036 1.3023Zm-2.8333-1.7617-.5755.1322-1.6063 2.5167.1328.5788 1.5178.9437.5818-.1258 1.6-2.5167-.1327-.5725-1.5179-.9564ZM12.3892 70.5304l-2.5297-2.718.0506-1.3905 2.789-2.5545 1.3977.0629 2.5297 2.7181-4.2373 3.882Zm1.404-5.5493h-.5945l-2.2198 2.0259v.5915l1.3724 1.4911 2.8396-2.5985-1.3977-1.51ZM7.7597 65.1004l-.6324-.9187 4.7178-3.2842.6324.9185-4.7178 3.2844ZM10.0186 59.9538l-3.4277 1.7805-1.2649-.4026-1.328-2.5167.392-1.2583.7843-.4027.5185.9941-.4174.2139-.1644.5222.7906 1.5038.5691.1824 2.6689-1.3842.177-.5663-.7968-1.5226-.544-.1698-.7968.4089.5755 1.0948-.8474.4404-1.0814-2.0574 2.011-1.0444 1.265.409 1.328 2.5166-.4111 1.2584ZM2.7134 55.7825l-.3858-1.0507 5.4072-1.9693.3922 1.0507-5.4136 1.9693ZM1.1573 50.7993l-.2277-1.0004 5.1416-3.3345.2593 1.1135-1.1383.7362.449 1.9756 1.3534.1762.253 1.1073-6.0903-.7739Zm3.1621-2.0385L2.359 50.0191l2.302.2328-.3415-1.4911ZM5.0846 45.5774l-.8221.0503-.0696-1.101h.487l.253-.2831-.1076-1.7052-.2972-.2642-.9487.0629-.2592.2831.139 2.1833-.8347.9438-1.5178.0881-.9423-.8306-.1645-2.5985.8348-.9437.8285-.0503.0696 1.101-.4933.0314-.253.2895.1012 1.6233.2846.2579.8475-.0504.2529-.2893-.1328-2.177.8348-.9437 1.619-.1007.955.8494.1644 2.6613-.8285.9124ZM.0504 39.1094l.0759-1.1199 5.7487.365-.0696 1.1198-5.755-.3649ZM.6516 33.925l.196-1.0067 6.0587-.9815-.215 1.1136-1.3408.2202-.3858 1.9945 1.1574.6984-.215 1.1199L.6515 33.925Zm3.744-.5852-2.2957.3398 2.011 1.1388.2847-1.4786Z"
  />
</svg>