<svg
  height="100%"
  width="100%"
  viewBox="0 0 20 11"
  fill="none"
  xmlns="http://www.w3.org/2000/svg"
>
  <path
    fill="currentColor"
    d="M.84 8V.272h5.22v.78H1.824v2.7h3.804v.768H1.824v2.712H6.06V8H.84Zm6.656 0V2.312h.888l.06.648c.272-.224.588-.408.948-.552a3.438 3.438 0 0 1 1.26-.216c.72 0 1.244.168 1.572.504.328.336.492.864.492 1.584V8h-.984V4.316c0-.496-.1-.84-.3-1.032-.2-.2-.584-.3-1.152-.3-.352 0-.684.064-.996.192-.312.128-.58.304-.804.528V8h-.984Zm9.052 2.112c-.424 0-.84-.024-1.248-.072a4.715 4.715 0 0 1-1.032-.228v-.816c.32.104.68.184 1.08.24.4.056.784.084 1.152.084.6 0 1.04-.036 1.32-.108.28-.072.42-.256.42-.552 0-.208-.076-.356-.228-.444-.144-.088-.404-.132-.78-.132H15.72c-1.048 0-1.572-.352-1.572-1.056 0-.232.072-.452.216-.66.152-.216.376-.368.672-.456a1.58 1.58 0 0 1-.708-.66c-.152-.288-.228-.628-.228-1.02 0-.712.204-1.228.612-1.548.416-.328 1.048-.492 1.896-.492.176 0 .356.016.54.048.192.024.34.048.444.072h2.052l-.036.672h-1.032c.184.152.316.336.396.552.08.208.12.44.12.696 0 .632-.184 1.124-.552 1.476-.368.344-.932.516-1.692.516a4.57 4.57 0 0 1-.348-.012 7.474 7.474 0 0 0-.348-.048c-.248.008-.48.08-.696.216-.216.128-.324.296-.324.504 0 .136.052.236.156.3.112.064.312.096.6.096h1.572c.568 0 1.004.116 1.308.348.304.224.456.556.456.996 0 .56-.232.948-.696 1.164-.464.216-1.124.324-1.98.324Zm.06-4.632c.568 0 .96-.092 1.176-.276.216-.184.324-.508.324-.972 0-.464-.116-.8-.348-1.008-.224-.208-.608-.312-1.152-.312-.536 0-.924.1-1.164.3-.24.2-.36.54-.36 1.02 0 .44.112.76.336.96.232.192.628.288 1.188.288Z"
  />
</svg>