<svg xmlns="http://www.w3.org/2000/svg" fill="none" viewBox="0 0 43 16">
  <path fill="#fff" d="M41.3723 3.6244a.6032.6032 0 0 0 .4327-.1848.6473.6473 0 0 0 .1812-.4472V.636a.648.648 0 0 0-.1798-.4498A.6032.6032 0 0 0 41.3723 0h-9.0044a.6034.6034 0 0 0-.4316.1877.648.648 0 0 0-.1785.4484v14.4817a.644.644 0 0 0 .1787.447.5996.5996 0 0 0 .4314.1851h9.0044a.5905.5905 0 0 0 .2346-.047.6093.6093 0 0 0 .1993-.1367.635.635 0 0 0 .1332-.2056.6515.6515 0 0 0 .0468-.2428v-2.3563a.6475.6475 0 0 0-.1812-.4472.6032.6032 0 0 0-.4327-.1848h-6.1201V9.6812h6.1201a.6019.6019 0 0 0 .4334-.1693.6464.6464 0 0 0 .196-.4348V6.7208a.6482.6482 0 0 0-.1812-.4472.6034.6034 0 0 0-.4328-.1849h-6.1355V3.6404l6.1201-.016ZM9.6292 12.1415h-6.127V.6361a.6475.6475 0 0 0-.18-.4498A.6043.6043 0 0 0 2.8876 0H.6146A.6043.6043 0 0 0 .18.1863.6475.6475 0 0 0 0 .6361v14.4817c0 .0834.016.1659.0469.2428a.634.634 0 0 0 .1334.2056.6097.6097 0 0 0 .1994.1367.5921.5921 0 0 0 .235.047h9.0145a.592.592 0 0 0 .235-.047.6095.6095 0 0 0 .1994-.1367.6356.6356 0 0 0 .1334-.2056.6515.6515 0 0 0 .0468-.2428v-2.3563a.646.646 0 0 0-.1854-.4394.6034.6034 0 0 0-.4292-.1806ZM14.648 0h-2.6594c-.3971 0-.7191.2846-.7191.6356v14.4787c0 .351.322.6356.7191.6356h2.6594c.3971 0 .7191-.2846.7191-.6356V.6356c0-.351-.322-.6356-.7191-.6356ZM29.1364 0h-2.2888a.6077.6077 0 0 0-.4342.1837.6344.6344 0 0 0-.1798.4436v8.544L19.7908.27a.434.434 0 0 0-.0505-.0675l-.035-.0397-.035-.0318-.031-.0238h-2.6347a.6073.6073 0 0 0-.4341.1837.6341.6341 0 0 0-.1799.4436v14.3841c0 .1668.0646.3267.1796.445a.611.611 0 0 0 .4344.1863h2.2888a.6112.6112 0 0 0 .4344-.1863.6385.6385 0 0 0 .1796-.445V6.4715l6.4234 8.8854a.7613.7613 0 0 0 .1593.1588l.0389.0238h.1243a.5406.5406 0 0 0 .1632.0238h2.2733a.6114.6114 0 0 0 .4369-.1849.6385.6385 0 0 0 .1809-.4464V.6273a.6385.6385 0 0 0-.1655-.4278A.6128.6128 0 0 0 29.1364 0Z"/>
</svg>